<svg xmlns="http://www.w3.org/2000/svg" width="1920" height="1080" viewBox="0 0 1920 1080" role="img" aria-label="四つを覚える — 識別の工夫と確認動作" data-route-id="route_A_security_inspection_lab" data-surface="viewer" data-scene-id="S3" data-cue-id="cue_009" data-approved-text="確かめ方は、透かす、触る、傾ける、ルーペで見る。この四つを覚えておこう。" data-subtitle-safe-area="84,780,1752,220" data-implementation-authorized="false"><style>.ui{font-family:"Yu Gothic UI","Meiryo",sans-serif}</style><title>四つを覚える — 識別の工夫と確認動作</title>
  <rect width="1920" height="1080" fill="#E9E5DB"/>
  <rect width="1920" height="108" fill="#17324D"/>
  <text x="84" y="68" class="ui" font-size="30" font-weight="900" fill="#F8F5ED">新しいお札の確認ポイント</text>
  <rect x="84" y="142" width="1220" height="578" rx="34" fill="#F8F5ED" stroke="#D4CEC0" stroke-width="3"/>
  <rect x="118" y="174" width="470" height="52" rx="26" fill="#E1ECE6"/><text x="353" y="209" text-anchor="middle" class="ui" font-size="22" font-weight="800" fill="#2F6F5D">模式図／実券の縮尺・配置ではありません</text>
  <rect x="520" y="274" width="728" height="374" rx="48" fill="#F3EFE4" stroke="#2F6F5D" stroke-width="5"/>
  <rect x="560" y="342" width="146" height="182" rx="28" fill="#DDE9F0"/><text x="633" y="422" text-anchor="middle" class="ui" font-size="24" font-weight="900" fill="#17324D">透かす</text><circle cx="633" cy="470" r="30" fill="#FFFFFF" stroke="#2F6F5D" stroke-width="5"/>
  <rect x="728" y="342" width="146" height="182" rx="28" fill="#E1ECE6"/><text x="801" y="422" text-anchor="middle" class="ui" font-size="24" font-weight="900" fill="#17324D">触る</text><path d="M766 482C780 442 822 442 838 482" fill="none" stroke="#2F6F5D" stroke-width="8"/>
  <rect x="896" y="342" width="146" height="182" rx="28" fill="#F1DFC9"/><text x="969" y="422" text-anchor="middle" class="ui" font-size="24" font-weight="900" fill="#17324D">傾ける</text><path d="M932 484L1002 454M932 484L994 506" stroke="#D77836" stroke-width="8"/>
  <rect x="1064" y="342" width="146" height="182" rx="28" fill="#E8E2F1"/><text x="1137" y="422" text-anchor="middle" class="ui" font-size="22" font-weight="900" fill="#17324D">ルーペ</text><circle cx="1128" cy="474" r="30" fill="none" stroke="#17324D" stroke-width="7"/><line x1="1150" y1="496" x2="1180" y2="526" stroke="#17324D" stroke-width="8"/>
  <text x="884" y="602" text-anchor="middle" class="ui" font-size="28" font-weight="900" fill="#2F6F5D">四つの動作を一度ずつ</text>
  <rect x="1340" y="142" width="496" height="578" rx="34" fill="#F8F5ED" stroke="#C7BFAF" stroke-width="3"/>
  <text x="1384" y="204" class="ui" font-size="25" font-weight="800" fill="#2F6F5D">四つを覚える</text>
<text x="1384" y="270" text-anchor="start" class="ui" font-size="36" font-weight="900" fill="#17324D">識別の工夫と確認動作</text>
  <line x1="1384" y1="360" x2="1792" y2="360" stroke="#D77836" stroke-width="6"/>
<text x="1384" y="422" text-anchor="start" class="ui" font-size="27" font-weight="600" fill="#263E52">識別の工夫を整理し、</text>
<text x="1384" y="466" text-anchor="start" class="ui" font-size="27" font-weight="600" fill="#263E52">透かす・触る・傾ける・</text>
<text x="1384" y="510" text-anchor="start" class="ui" font-size="27" font-weight="600" fill="#263E52">ルーペで見るを一列でまとめます。</text>
  <rect x="84" y="780" width="1752" height="220" rx="28" fill="#111D29"/>
  <rect x="84" y="780" width="12" height="220" rx="6" fill="#D77836"/>
<text x="130" y="850" text-anchor="start" class="ui" font-size="32" font-weight="800" fill="#FFFFFF">確かめ方は、透かす、触る、傾ける、</text>
<text x="130" y="892" text-anchor="start" class="ui" font-size="32" font-weight="800" fill="#FFFFFF">ルーペで見る。この四つを覚えておこう。</text>
</svg>
