<svg xmlns="http://www.w3.org/2000/svg" width="1920" height="1080" viewBox="0 0 1920 1080" data-surface="viewer" data-design-id="documentary_object_focus_consensus" data-cue-id="cue_006" data-approved-text="マイクロ文字の『NIPPONGINKO』は、ルーペで確かめられる。カラーコピー機では再現が難しいほど小さい文字なんだ。" data-reference-ids="O01 O02 J04" data-pattern-ids="P01_object_first P02_one_focus_callout P03_short_key_term P04_bottom_text_band P06_adjacent_source_credit" data-external-asset-count="0" data-human-approval="pending" data-implementation-authorized="false">
<rect width="1920" height="1080" fill="#15181D"/>
<rect x="48" y="42" width="1824" height="696" rx="32" fill="#F7F5EF"/>
<text x="84" y="116" font-size="30" font-weight="800" fill="#70757D">S2 / cue_006</text>
<text x="84" y="188" font-size="70" font-weight="900" fill="#15181D">ルーペで見る</text>
<text x="84" y="238" font-size="28" font-weight="800" fill="#387F82">マイクロ文字</text>
<rect x="722" y="274" width="1114" height="414" rx="28" fill="#FFFFFF" stroke="#D8D5CC" stroke-width="4"/><rect x="820" y="398" width="490" height="178" rx="22" fill="#EEEAE0"/><text x="1065" y="500" text-anchor="middle" font-size="27" letter-spacing="8" fill="#70757D">NIPPONGINKO</text><circle cx="1535" cy="486" r="150" fill="#FFFFFF" stroke="#52C7C7" stroke-width="9"/><path d="M1425 596 L1324 682" stroke="#52C7C7" stroke-width="22" stroke-linecap="round"/><text x="1535" y="474" text-anchor="middle" font-size="34" font-weight="900" fill="#15181D">文字を</text><text x="1535" y="522" text-anchor="middle" font-size="34" font-weight="900" fill="#15181D">拡大</text><text x="1050" y="640" text-anchor="middle" font-size="22" fill="#70757D">位置・書体・パターンは再現しない</text>
<text x="84" y="724" font-size="24" font-weight="800" fill="#70757D">模式図／実券の縮尺・配置ではありません</text>
<rect x="84" y="780" width="1752" height="220" rx="26" fill="#24282F" stroke="#454B55" stroke-width="2"/>
<rect x="112" y="812" width="170" height="56" rx="28" fill="#E5B840"/>
<text x="197" y="850" text-anchor="middle" font-size="28" font-weight="900" fill="#15181D">まりさ</text>
<text font-size="38" font-weight="800" fill="#FFFFFF"><tspan x="316" y="844">マイクロ文字の『NIPPONGINKO』は、ルーペで確かめられる。</tspan><tspan x="316" y="894">カラーコピー機では再現が難しいほど小さい文字なんだ。</tspan></text>
<text x="84" y="1044" font-size="20" font-weight="700" fill="#B7BDC5">参照文法 O01 O02 J04 ｜ 外部画像不使用 ｜ human review pending</text>
</svg>
