<svg xmlns="http://www.w3.org/2000/svg" width="1920" height="1080" viewBox="0 0 1920 1080" data-surface="viewer" data-design-id="documentary_object_focus_consensus" data-cue-id="cue_009" data-approved-text="確かめ方は、透かす、触る、傾ける、ルーペで見る。この四つを覚えておこう。" data-reference-ids="J01 J05 Y03" data-pattern-ids="P01_object_first P02_one_focus_callout P03_short_key_term P04_bottom_text_band P06_adjacent_source_credit" data-external-asset-count="0" data-human-approval="pending" data-implementation-authorized="false">
<rect width="1920" height="1080" fill="#15181D"/>
<rect x="48" y="42" width="1824" height="696" rx="32" fill="#F7F5EF"/>
<text x="84" y="116" font-size="30" font-weight="800" fill="#70757D">S3 / cue_009</text>
<text x="84" y="188" font-size="70" font-weight="900" fill="#15181D">四つを覚える</text>
<text x="84" y="238" font-size="28" font-weight="800" fill="#387F82">確認動作のまとめ</text>
<rect x="722" y="274" width="1114" height="414" rx="28" fill="#FFFFFF" stroke="#D8D5CC" stroke-width="4"/><text x="1279" y="338" text-anchor="middle" font-size="26" font-weight="800" fill="#70757D">確認動作を一枚で整理</text><rect x="725" y="388" width="410" height="104" rx="22" fill="#EEF7F7" stroke="#52C7C7" stroke-width="4"/><text x="775" y="451" font-size="24" font-weight="900" fill="#387F82">01</text><text x="954" y="451" text-anchor="middle" font-size="30" font-weight="900" fill="#15181D">透かす</text><rect x="1215" y="388" width="410" height="104" rx="22" fill="#EEF7F7" stroke="#52C7C7" stroke-width="4"/><text x="1265" y="451" font-size="24" font-weight="900" fill="#387F82">02</text><text x="1444" y="451" text-anchor="middle" font-size="30" font-weight="900" fill="#15181D">触る</text><rect x="725" y="518" width="410" height="104" rx="22" fill="#EEF7F7" stroke="#52C7C7" stroke-width="4"/><text x="775" y="581" font-size="24" font-weight="900" fill="#387F82">03</text><text x="954" y="581" text-anchor="middle" font-size="30" font-weight="900" fill="#15181D">傾ける</text><rect x="1215" y="518" width="410" height="104" rx="22" fill="#EEF7F7" stroke="#52C7C7" stroke-width="4"/><text x="1265" y="581" font-size="24" font-weight="900" fill="#387F82">04</text><text x="1444" y="581" text-anchor="middle" font-size="30" font-weight="900" fill="#15181D">ルーペで見る</text>
<text x="84" y="724" font-size="24" font-weight="800" fill="#70757D">模式図／実券の縮尺・配置ではありません</text>
<rect x="84" y="780" width="1752" height="220" rx="26" fill="#24282F" stroke="#454B55" stroke-width="2"/>
<rect x="112" y="812" width="170" height="56" rx="28" fill="#E5B840"/>
<text x="197" y="850" text-anchor="middle" font-size="28" font-weight="900" fill="#15181D">まりさ</text>
<text font-size="38" font-weight="800" fill="#FFFFFF"><tspan x="316" y="844">確かめ方は、透かす、触る、傾ける、ルーペで見る。</tspan><tspan x="316" y="894">この四つを覚えておこう。</tspan></text>
<text x="84" y="1044" font-size="20" font-weight="700" fill="#B7BDC5">参照文法 J01 J05 Y03 ｜ 外部画像不使用 ｜ human review pending</text>
</svg>
